<?xml version="1.0" encoding="UTF-8"?>
<svg data-bbox="0.003 0.002 252.477 204.435" viewBox="0 0 252.48 204.44" xmlns="http://www.w3.org/2000/svg" data-type="ugc">
    <g>
        <defs>
            <linearGradient gradientUnits="userSpaceOnUse" y2="384.66" x2="128.52" y1="-8.48" x1="125.09" id="01943798-23fa-4c64-b7f6-f8746d6e930b">
                <stop stop-color="#44c1ef" offset=".41"/>
                <stop stop-color="#386693" offset=".84"/>
                <stop stop-color="#313b6f" offset="1"/>
            </linearGradient>
        </defs>
        <path d="m133.87 113.02-.33.19-.11.06-.16.09-43.87 25.33c-1.86-.82-3.92-1.27-6.08-1.27-8.37 0-15.16 6.79-15.16 15.16s6.79 15.16 15.16 15.16c6.77 0 12.51-4.44 14.45-10.57l46.2-26.67 8.82-5.09c3.03-1.75 6.24-2.92 9.51-3.54 4.63-.89 9.37-.68 13.85.52 7.63 2.05 14.49 6.98 18.71 14.3 4.07 7.05 5 15.1 3.25 22.49l.14.16-.21.12c-.05.2-.1.39-.15.58-2.04 7.63-6.98 14.49-14.3 18.72-7.32 4.23-15.73 5.07-23.36 3.03l-.58-.16-20.9 12.07a51.211 51.211 0 0 0 16.26 7.6c12.62 3.38 26.53 1.97 38.68-5.05 12.15-7.02 20.33-18.36 23.71-30.97 3.38-12.62 1.97-26.53-5.05-38.68-7.02-12.15-18.36-20.33-30.97-23.71-9.54-2.56-19.82-2.37-29.52.9-3.13 1.06-6.2 2.43-9.16 4.15l-8.82 5.09Zm32.11 24.33c-7.61 0-13.9 5.6-14.99 12.9l-45.81 26.45c-13.49 7.79-28.95 9.35-42.99 5.58-14.04-3.76-26.65-12.84-34.44-26.34-7.79-13.49-9.35-28.95-5.59-42.99 3.76-14.01 12.81-26.6 26.24-34.39l.09-.05c13.49-7.79 28.95-9.35 42.99-5.59 14.04 3.76 26.65 12.84 34.44 26.33l17.49-10.09c-10.58-18.32-27.68-30.65-46.7-35.74-17.73-4.75-37.14-3.23-54.53 5.56l-.17-.04-3.62 2.09C20.07 71.61 7.75 88.71 2.65 107.73c-5.1 19.03-2.97 40 7.6 58.32 10.58 18.32 27.68 30.64 46.7 35.74 19.03 5.1 40 2.97 58.32-7.6l46.81-27.02c1.25.33 2.55.51 3.9.51 7.01 0 12.91-4.76 14.64-11.22v-.02c.34-1.25.52-2.57.52-3.93 0-8.37-6.79-15.16-15.16-15.16Zm18.9-44.27c6.76 2.06 12.61 4.72 18.55 9.07 1.75-4.52 3.68-8.98 4.99-13.65 8.35 1.88 15.45 7.18 19.72 14.58 3.93 6.8 5.28 15.08 3.1 23.2a30.52 30.52 0 0 1-3.4 7.95 62.544 62.544 0 0 1 2 26.35c9.92-6.61 17.59-16.7 20.91-29.07 3.62-13.51 1.39-27.25-5.12-38.52-6.51-11.27-17.3-20.08-30.8-23.69-1.25-.34-2.51-.62-3.76-.86a69.065 69.065 0 0 0-9.28-33.66c-9.58-16.59-25.07-27.76-42.3-32.38-17.23-4.62-36.23-2.69-52.82 6.89-12.42 7.17-24.5 20.2-34.02 31.19 8.22.41 16.6 1.32 24.45 3.62l10.44-10.44c2.74-2.6 5.83-4.92 9.23-6.89 11.76-6.79 25.25-8.15 37.5-4.87 12.25 3.28 23.25 11.2 30.04 22.97 6.47 11.22 8.36 25.05 4.85 37.56l-4.28 10.66Z" fill="url(#01943798-23fa-4c64-b7f6-f8746d6e930b)"/>
        <path d="M105.58 31.6c2.94-2.79 6.23-5.24 9.77-7.29a52.044 52.044 0 0 1 25.98-6.96c4.61 0 9.21.61 13.67 1.8 13.53 3.63 24.81 12.25 31.76 24.29 6.96 12.06 8.83 26.55 5.13 39.74l-.04.15-.43 1.08c4.89 1.01 9.65 2.14 14.26 3.39 0-.03.02-.05.02-.08l.73-2.59 2.62.59a33.273 33.273 0 0 1 15.21 8.01c8.48 3.16 16.29 6.76 23.3 10.73a48.39 48.39 0 0 0-4.38-10.07c-6.42-11.12-16.75-19.07-29.08-22.37-1.18-.32-2.37-.59-3.55-.81l-2.28-.43-.03-2.32a66.665 66.665 0 0 0-8.9-32.29c-8.89-15.4-23.3-26.43-40.58-31.06-5.7-1.53-11.57-2.3-17.44-2.3-11.65 0-23.14 3.08-33.23 8.91C97.62 17.76 87.15 28.38 78.57 38c6.76.56 12.51 1.51 17.69 2.89l9.32-9.32Z" fill="#ffffff" opacity=".21"/>
        <path d="M22.75 102.92c5.07-11.22 13.43-20.55 24.23-26.8l.09-.05a59.285 59.285 0 0 1 29.58-7.92c5.24 0 10.48.69 15.56 2.05 7.19 1.93 13.82 5.1 19.66 9.32 6.72-.49 13.59-.75 20.57-.78-9.55-10.87-22.1-18.72-36.46-22.56a74.805 74.805 0 0 0-19.34-2.55c-11.48 0-22.95 2.73-33.18 7.9l-.97.49-.08-.02-2.6 1.5c-17.06 9.85-29.29 25.83-34.42 44.98-.61 2.28-1.1 4.57-1.5 6.87 5.45-4.46 11.78-8.62 18.86-12.41Z" fill="#ffffff" opacity=".21"/>
    </g>
</svg>
